<svg xmlns:xlink="http://www.w3.org/1999/xlink" xmlns="http://www.w3.org/2000/svg" viewBox="0 0 260 130">
  <defs>
    <clipPath id="b">
      <use xlink:href="#a"/>
    </clipPath>
    <path d="M0 0h260v130H0V0Z" id="a"/>
  </defs>
  <path d="M0 0h260v130H0V0Z" fill="none"/>
  <g clip-path="url(#b)" fill="#001B38">
    <path d="M35.43 35.77c7.13-.03 14.26-.03 21.39 0 .04 4.62.05 9.24-.01 13.87-7.12.09-14.25.09-21.37 0-.06-4.63-.05-9.25-.01-13.87Zm24.15 25.74c2.06-.03 4.11-.04 6.16-.03-1.79 2.3-3.77 4.47-6.03 6.31-.08-2.09-.09-4.18-.13-6.28ZM59.62 35.82c7-.12 14.01-.12 21.02 0-.03 7.39-.03 14.77-.01 22.15-7 .12-14.01.12-21.01 0 .01-7.38.01-14.77 0-22.15ZM92.65 35.96c3.57.02 7.14.01 10.7.01-.03 1.51-.06 3.02-.11 4.53-2.12-.03-4.23-.03-6.33-.02 0 1.35.01 2.71.02 4.05 2.14 0 4.29.01 6.43.02-.03 1.5-.06 3.01-.11 4.52-2.11-.03-4.23-.03-6.33-.02 0 1.35.01 2.71.02 4.05 2.13 0 4.25.02 6.38 0 .02 1.49.03 2.98.05 4.47-3.57.06-7.15.04-10.72.02-.03-7.21-.05-14.42 0-21.63Zm13.92-.01c3.48.03 6.97.03 10.46.01l.03 4.27c-2.13.03-4.27.03-6.4.03-.02 1.41-.03 2.84-.03 4.25 2.13.03 4.27.04 6.4.03.02 1.41.02 2.84.03 4.25-2.13.03-4.27.04-6.4.03-.03 2.9-.05 5.78.03 8.68-1.37.06-2.75.1-4.13.13 0-7.22-.03-14.45.01-21.68Zm13.71 0c3.52.02 7.05.08 10.58-.07.08 1.46.11 2.91.14 4.36-2.14.01-4.29.01-6.43 0-.02 1.43-.02 2.85-.03 4.29 2.11.02 4.21.02 6.32-.07.07 1.45.12 2.9.15 4.35-2.15 0-4.29.01-6.44 0-.01 2.93-.01 5.85-.02 8.78-1.42.01-2.85.01-4.28 0 0-7.21-.03-14.42.01-21.64Zm13.74-.02c1.34.02 2.68.03 4.03.04.05 7.17-.1 14.34.08 21.5-1.38.09-2.77.13-4.15.15.02-7.22-.06-14.45.04-21.69Zm11.54 1.18c2.91-2.19 6.78-1.41 9.97-.36.06 1.88.09 3.76.11 5.65-2.46-1.17-5.66-3.13-8.16-.96-2.97 3.03-2.94 9.5 1.25 11.48 2.43.93 4.75-.57 6.92-1.47-.04 1.83-.07 3.66-.17 5.49-2.99.77-6.37 1.83-9.23.07-6.77-4.13-6.97-15.24-.69-19.9Zm12.63-1.14c1.41 0 2.82-.01 4.23-.02.09 7.22.03 14.46.03 21.68-1.46-.03-2.91-.08-4.36-.15.21-7.17.03-14.34.1-21.51Zm7.71 0c3.57 0 7.13 0 10.7.01.02 1.45.05 2.91.1 4.35-2.16.16-4.33.15-6.49.14-.02 1.34-.03 2.67-.05 4 2.14.06 4.29.08 6.44.09.02 1.45.04 2.9.09 4.35-2.16.15-4.32.15-6.48.13-.02 1.34-.03 2.67-.05 4 2.14.06 4.29.08 6.44.09.02 1.45.04 2.9.09 4.35-3.61.21-7.22.15-10.84.03.11-7.17.02-14.36.05-21.54Zm13.74-.06c1.41.17 2.99-.28 4.28.42 2.86 4.13 5.11 8.67 8.09 12.73.08-4.36 0-8.72.06-13.07 1.31-.03 2.63-.05 3.94-.09.22 7.23.06 14.47.09 21.7-1.34.01-2.68.03-4.02.04-2.76-4.3-5.19-8.83-8.13-13.01-.1 4.33-.01 8.66-.05 13-1.46-.03-2.91-.06-4.35-.13.17-7.19-.02-14.39.09-21.59Zm24.1 1.11c2.9-2.1 6.73-1.33 9.86-.22.06 1.91.08 3.83.09 5.74-2.37-1.35-5.54-3.25-8.05-1.17-2.73 2.61-2.87 7.65-.44 10.51 2.43 2.46 6 .93 8.49-.57-.03 1.88-.05 3.76-.15 5.64-2.98.77-6.35 1.79-9.21.08-6.83-4.13-6.96-15.4-.59-20.01Zm11.44-1.07c1.53.22 3.41-.49 4.73.45 1.16 1.89 2.01 3.94 3.14 5.84 1.32-2.02 1.98-4.56 3.75-6.23 1.41-.1 2.83-.06 4.24-.05-1.63 3.92-4.01 7.47-5.61 11.39-.43 3.39-.08 6.84-.18 10.25-1.43.01-2.86.01-4.29 0-.38-4.34 1.11-9.18-1.48-13.04-1.55-2.82-3.02-5.67-4.3-8.61ZM50.61 58.01c1.88-2.43 4.03-4.65 6.21-6.81.02 2.29.02 4.57.02 6.85-2.08-.01-4.16-.01-6.23-.04Zm16.71 3.52c4.44-.12 8.88-.12 13.32 0-.03 7.43 0 14.86-.03 22.29-4.42.24-8.84.24-13.27 0-.02-7.43.02-14.86-.02-22.29ZM46.92 61.76c3.25-.68 6.62-.18 9.91-.28-.45 3.88 1.51 8.84-1.95 11.73-3.51 3.4-6.55 7.28-10.27 10.46-3.01.64-6.12.21-9.16.25.04-3.41-.28-6.84.15-10.22 3.53-4.17 7.35-8.16 11.32-11.94Z" fill-rule="evenodd"/>
    <path d="M92.662 81.392V60.398h2.778v18.517h10.34v2.477H92.662Zm58.587 0v-1.919q-1.447 2.263-4.254 2.263-1.818 0-3.344-1.003-1.525-1.002-2.363-2.8-.837-1.797-.837-4.13 0-2.278.759-4.132.759-1.855 2.277-2.843 1.518-.988 3.394-.988 1.375 0 2.449.58 1.074.58 1.747 1.51v-7.532h2.563v20.994h-2.391Zm-32.08-4.898 2.665.33q-.63 2.334-2.335 3.623-1.704 1.289-4.353 1.289-3.337 0-5.292-2.055-1.955-2.055-1.955-5.764 0-3.838 1.977-5.958 1.976-2.12 5.126-2.12 3.05 0 4.984 2.077 1.933 2.077 1.933 5.843 0 .23-.014.688h-11.342q.143 2.506 1.418 3.838 1.274 1.331 3.179 1.331 1.418 0 2.42-.744 1.003-.745 1.59-2.378Zm13.069 4.74q1.324-.5 2.756-1.718.115 1.074.516 1.876h2.692q-.487-.873-.651-1.826-.165-.952-.165-4.547v-3.437q0-1.718-.129-2.377-.229-1.06-.802-1.754-.573-.695-1.79-1.153-1.217-.458-3.165-.458-1.962 0-3.451.537-1.49.537-2.277 1.532-.788.995-1.132 2.614l2.52.343q.416-1.618 1.283-2.255.866-.637 2.685-.637 1.947 0 2.936.873.73.645.73 2.22 0 .143-.014.673-1.476.516-4.597.888-1.533.186-2.292.387-1.03.286-1.854.844-.824.559-1.332 1.483-.508.923-.508 2.04 0 1.905 1.346 3.13 1.346 1.224 3.852 1.224 1.518 0 2.843-.501Zm38.53-4.41-2.664-.33q-.587 1.633-1.59 2.378-1.002.744-2.42.744-1.904 0-3.179-1.331-1.274-1.332-1.417-3.838h11.342q.014-.459.014-.688 0-3.766-1.933-5.843-1.934-2.076-4.984-2.076-3.15 0-5.127 2.12-1.976 2.119-1.976 5.957 0 3.709 1.955 5.764 1.954 2.055 5.291 2.055 2.65 0 4.354-1.289 1.704-1.289 2.334-3.623Zm3.208 4.568V66.183h2.32v2.306q.888-1.618 1.64-2.134.751-.515 1.654-.515 1.303 0 2.65.83l-.889 2.392q-.945-.559-1.89-.559-.845 0-1.518.509-.673.508-.96 1.41-.43 1.375-.43 3.008v7.962h-2.577Zm11.313-4.94-2.549.4q.43 2.42 1.984 3.652 1.554 1.232 4.518 1.232 1.79 0 3.208-.623 1.418-.623 2.17-1.761.752-1.139.752-2.428 0-1.317-.616-2.205-.616-.888-1.697-1.354-1.081-.465-3.817-1.195-1.89-.516-2.277-.66-.673-.271-.988-.687-.315-.4-.315-.902 0-.787.759-1.375.759-.587 2.535-.587 1.503 0 2.327.66.823.658.995 1.832l2.52-.344q-.243-1.475-.887-2.355-.645-.881-1.998-1.397-1.353-.515-3.144-.515-1.188 0-2.226.308-1.039.308-1.64.751-.802.573-1.268 1.44-.465.866-.465 1.883 0 1.117.566 2.04.565.924 1.66 1.447 1.096.523 3.932 1.239 2.105.53 2.635.873.759.502.759 1.375 0 .974-.86 1.697-.858.723-2.634.723-1.762 0-2.743-.816-.98-.816-1.196-2.348Zm-74.583-4.125h8.492q-.171-1.919-.973-2.878-1.232-1.49-3.194-1.49-1.776 0-2.986 1.189-1.21 1.189-1.339 3.18Zm57.427 0h-8.492q.129-1.99 1.339-3.18 1.21-1.188 2.986-1.188 1.962 0 3.193 1.49.802.96.974 2.878ZM143.1 73.802q0 2.922 1.232 4.368 1.231 1.446 2.907 1.446 1.69 0 2.871-1.382 1.182-1.381 1.182-4.217 0-3.122-1.203-4.583-1.203-1.46-2.965-1.46-1.718 0-2.871 1.403t-1.153 4.425Zm-12.53.931q2.806-.4 4.21-.974v.945q0 1.705-.416 2.578-.544 1.131-1.704 1.783-1.16.652-2.65.652-1.503 0-2.283-.688-.78-.687-.78-1.718 0-.673.357-1.225.358-.551 1.017-.837.659-.287 2.248-.516Z"/>
  </g>
</svg>
