<svg xmlns="http://www.w3.org/2000/svg" viewBox="0 0 260 130">
  <defs>
    <path d="M0 0h260v130H0V0Z" id="a"/>
  </defs>
  <path d="M0 0h260v130H0V0Z" fill="none"/>
  <g fill="#001B38">
    <path d="M47.23 36h.85c.39.14.8.28 1.12.56.71.59 1.02 1.6.78 2.48-.25.99-1.19 1.76-2.21 1.79-.82.05-1.64-.35-2.11-1.02-.6-.82-.58-2.03.03-2.84.37-.51.95-.81 1.54-.97ZM9.25 44.81c.16-1.09 1.17-2 2.29-1.94 1.11-.03 2.12.91 2.23 2.01.12.95-.44 1.93-1.31 2.32-.76.36-1.71.23-2.36-.29-.45-.35-.72-.88-.84-1.43v-.67h-.01Z"/>
    <path d="M57.39 58.35c.18 0 .38.02.55-.08l-.06.09c1.9.15 3.66 1.34 4.54 3.03.7 1.31.83 2.9.38 4.31a5.633 5.633 0 0 1-2.85 3.35c-.89.46-1.89.62-2.88.61-1.2-.11-2.37-.55-3.29-1.34-1.23-1.03-2.01-2.6-2.01-4.21-.04-1.42.49-2.85 1.44-3.91a5.755 5.755 0 0 1 4.18-1.85Zm-.82 2.02c-1.7.35-2.99 2.02-2.89 3.75.01 1.87 1.65 3.56 3.52 3.6 1.22.08 2.44-.5 3.18-1.47.61-.81.88-1.88.7-2.88a3.733 3.733 0 0 0-2.04-2.72c-.75-.38-1.65-.48-2.47-.28Z" fill-rule="evenodd"/>
  </g>
  <path d="M31.8 37.47c1.51-.35 3.13-.22 4.56.39 1.54.65 2.84 1.86 3.62 3.34.68 1.28.96 2.77.8 4.22-.25.48-.61.89-.77 1.42-.26.57-.28 1.2-.36 1.81a7.77 7.77 0 0 1-2.89 2.57c-1.76.87-3.87 1.02-5.72.35-.51-.21-1.02-.42-1.49-.7-.4-.22-.71-.56-1.07-.83-1.86-1.7-2.73-4.38-2.22-6.84-.91.14-1.88-.31-2.3-1.14-.4-.74-.32-1.71.21-2.37.49-.64 1.35-.96 2.13-.8.63.11 1.17.52 1.49 1.07 1.05-1.23 2.46-2.13 4.01-2.49Zm.92 1.79c-1.77.24-3.36 1.42-4.12 3.03-.6 1.24-.7 2.71-.27 4.01a5.465 5.465 0 0 0 2.3 2.94c1.28.8 2.9 1.04 4.35.6a5.46 5.46 0 0 0 3.07-2.3c.68-1.06.98-2.38.8-3.63-.2-1.59-1.16-3.05-2.52-3.89a5.396 5.396 0 0 0-3.61-.76Zm-5.88 35.37c.02-.02.06-.05.08-.07.64.17 1.32.15 1.95.37.77.29 1.52.64 2.13 1.19.56.52 1.14 1.05 1.5 1.74 1.23 1.95 1.2 4.56.09 6.55a6.604 6.604 0 0 1-3.07 2.77c-1.59.7-3.46.74-5.07.08a6.66 6.66 0 0 1-3.22-2.8c-1.37-2.26-1.11-5.34.55-7.38.43-.52.93-.97 1.48-1.35 1.05-.71 2.32-1.08 3.58-1.1Zm-.86 2.33c-.98.22-1.89.78-2.5 1.58-.62.8-.95 1.82-.9 2.83.04 1.28.71 2.5 1.73 3.26.91.7 2.13 1 3.26.81 1.07-.17 2.07-.75 2.72-1.61.79-1 1.1-2.35.81-3.59-.3-1.4-1.36-2.61-2.7-3.11-.77-.29-1.62-.34-2.42-.17Z" fill="#001B38"/>
  <g fill="#001B38">
    <path d="M52.38 42.88c1.15-.5 2.52-.45 3.63.13 1.03.53 1.83 1.5 2.14 2.62.27.94.19 1.97-.19 2.87.94-.22 1.95-.12 2.81.33 1.04.53 1.82 1.56 2.05 2.7.27 1.25-.12 2.63-1.01 3.55-.72.76-1.74 1.21-2.78 1.24-.22.71-.61 1.36-1.08 1.93-.16.1-.36.08-.55.08-1.57 0-3.13.7-4.19 1.86-.95 1.06-1.49 2.48-1.44 3.91 0 1.61.78 3.18 2.01 4.21.92.79 2.09 1.23 3.29 1.34 1.07 1.03 1.85 2.39 2.07 3.88.24 1.5-.03 3.08-.79 4.39a6.916 6.916 0 0 1-3.57 3.02c-1.51.56-3.23.53-4.73-.06-.16-.81-.64-1.53-1.28-2.03-.67-.47-1.51-.72-2.33-.61-1.36.09-2.52 1.19-2.85 2.49-.44.15-.88.29-1.33.41.87 1.65.77 3.76-.29 5.3a5.166 5.166 0 0 1-3.95 2.27h-.86c-.5-.09-1-.19-1.47-.4-1.6-.67-2.83-2.2-3.09-3.92 1.11-1.99 1.14-4.6-.09-6.55-.36-.69-.94-1.22-1.5-1.74-.61-.55-1.37-.91-2.13-1.19-.63-.22-1.31-.2-1.95-.37.39-.74.45-1.62.15-2.4.5-.5 1-1.01 1.51-1.5 2.29 2.47 5.03 4.48 7.92 6.18.02 1.25-.01 2.5-.01 3.74-.7.29-1.32.81-1.67 1.49-.47.86-.51 1.93-.12 2.83.29.65.79 1.21 1.41 1.55.95.53 2.17.55 3.13.03 1.3-.69 1.94-2.34 1.55-3.74-.28-.97-1.04-1.74-1.9-2.24 0-1.22-.04-2.44.02-3.65 1.35-.75 2.64-1.62 3.88-2.53 1.37-1.03 2.68-2.14 3.85-3.39.54.46 1.06.94 1.59 1.41-.54 1.04-.71 2.27-.43 3.41.3 1.27 1.14 2.4 2.27 3.05 1.33.79 3.05.86 4.45.2a4.805 4.805 0 0 0 2.52-2.82c.36-1.04.34-2.21-.05-3.25a4.84 4.84 0 0 0-2.89-2.83c-1.39-.51-3-.3-4.24.5-.55-.49-1.1-.98-1.65-1.48 1.12-1.52 2.04-3.22 2.45-5.07.37-1.63.34-3.37-.31-4.93l2.19-1.59c.8.5 1.83.63 2.72.3 1.08-.38 1.9-1.4 2.02-2.55.01-.56.59-1.03 1.14-.89.72.17 1.53-.06 2.02-.63.58-.63.7-1.64.26-2.39-.45-.82-1.47-1.23-2.36-.98-.82-.86-1.64-1.71-2.45-2.57.3-.61.34-1.35.02-1.95-.39-.81-1.35-1.29-2.23-1.12-.97.14-1.75 1.06-1.74 2.04-.03.96.69 1.88 1.63 2.08.39.1.78.04 1.16-.05.8.84 1.61 1.68 2.4 2.52-.14.35-.32.75-.71.88-.33.14-.68.02-.98-.14-1.08-.49-2.43-.27-3.3.53-.82.72-1.18 1.88-.96 2.95l-2.1 1.53c-.95-1.06-2.19-1.87-3.57-2.24-1.78-.49-3.76-.29-5.38.62-.93.48-1.69 1.22-2.41 1.96-.45-.42-.85-.89-1.34-1.26-1.25-1-2.84-1.59-4.45-1.58-1.5-.02-3.01.44-4.24 1.31-.2.15-.4.3-.61.45-.48-.54-1.01-1.04-1.49-1.59.53-.82.72-1.85.54-2.8-.2-1.22-1.02-2.31-2.13-2.86a3.94 3.94 0 0 0-2.78-.3c-1.23.31-2.27 1.25-2.73 2.43-.33.81-.35 1.72-.12 2.55-.7.37-1.4.73-2.1 1.09-.55-.52-1.32-.83-2.08-.73-.95.08-1.82.77-2.13 1.67-.36.99-.04 2.18.78 2.84.74.62 1.86.78 2.7.28.91-.54 1.65-1.59 1.42-2.69.69-.39 1.41-.73 2.11-1.1.63.78 1.54 1.34 2.54 1.48.73.12 1.48 0 2.17-.27.53.56 1.06 1.12 1.59 1.67.06.08.21.17.12.28a7.332 7.332 0 0 0-.95 3.94c.08 2.33 1.05 4.55 2.39 6.43.04.08.18.19.06.27-.54.55-1.09 1.09-1.64 1.63-1.36-.5-3 .27-3.5 1.62-.57 1.32.1 2.95 1.39 3.56-.55.39-1.05.84-1.48 1.35-1.34-.92-2.15-2.56-2.02-4.19.02-.56.21-1.08.36-1.61-.02-.01-.05-.02-.06-.03l.05-.09c.38.01.69-.24 1-.42 1.55-.92 2.59-2.57 2.87-4.34.16-1.21-.01-2.48-.56-3.58-.67-1.45-1.95-2.59-3.45-3.12a6.117 6.117 0 0 0-4.53.13c-.66.31-1.28.69-1.81 1.2a4.493 4.493 0 0 1-3.1-2.29c-.61-1.13-.7-2.54-.21-3.73.54-1.36 1.78-2.43 3.22-2.73.93-.21 1.91-.08 2.77.3.01-1.33.49-2.65 1.33-3.68.81-1 1.96-1.72 3.22-2.01 1.45-.34 3.02-.11 4.3.64 1.17.67 2.08 1.76 2.57 3.01l.75-.51c.36.27.67.61 1.07.83.47.29.98.49 1.49.7 1.85.67 3.96.52 5.72-.35a7.77 7.77 0 0 0 2.89-2.57c.04 1.3.58 2.58 1.51 3.49.95.89 2.24 1.43 3.55 1.39 1.61-.01 3.15-.89 4.02-2.24.41.33.78.7 1.18 1.05.45-.8 1.15-1.44 1.95-1.88-.57-.36-1.08-.83-1.43-1.41-.7-1.09-.84-2.51-.39-3.73.42-1.06 1.28-1.98 2.35-2.43ZM37.3 51.95c-.76.12-1.39.81-1.42 1.59-.04.55.2 1.11.63 1.45.54.45 1.37.52 1.97.14.57-.34.91-1.02.83-1.68-.08-.96-1.07-1.7-2.01-1.5Zm7.55 22.06c-.63.16-1.13.72-1.25 1.35-.12.64.14 1.32.67 1.7.65.51 1.67.43 2.25-.16.49-.48.64-1.27.37-1.9-.31-.77-1.23-1.23-2.04-.99ZM189.75 53.17c1.57-.01 3.13 0 4.7 0-.01 8.22.02 16.45-.01 24.67-1.52-.02-3.05 0-4.57-.01-.03-.72-.02-1.45-.04-2.17-.73 1.21-1.94 2.15-3.33 2.46-2.04.47-4.3.11-6-1.14-1.26-.91-2.15-2.24-2.71-3.68-.73-1.84-.89-3.86-.76-5.82.14-1.93.66-3.88 1.81-5.46.95-1.32 2.41-2.28 4.01-2.58 1.6-.3 3.35-.16 4.77.68.85.49 1.54 1.2 2.13 1.97v-8.92Zm-4.55 10.26c-.7.1-1.38.37-1.9.86-.66.6-1.03 1.45-1.23 2.3-.23 1.04-.28 2.11-.2 3.17.11 1.4.63 2.83 1.69 3.78 1.15 1.06 3.03 1.16 4.31.28.82-.57 1.41-1.43 1.73-2.38.29-.88.36-1.82.32-2.74-.04-1.06-.17-2.14-.59-3.12-.3-.72-.8-1.37-1.49-1.75-.81-.45-1.76-.52-2.64-.4Z" fill-rule="evenodd"/>
    <path d="M152.97 53.5c1.14-.32 2.43.32 2.88 1.41.43.97.14 2.19-.69 2.86-.78.67-1.99.75-2.86.2-.76-.46-1.23-1.36-1.16-2.24.04-1.03.82-1.98 1.83-2.23ZM132.1 53.5h17.35c.01 1.41 0 2.82 0 4.23H137.2v5.53h10.71v4.3H137.2c0 3.42.01 6.85-.01 10.27-1.7 0-3.39-.01-5.08 0-.02-8.11 0-16.22-.01-24.33ZM164.81 60.38c1.26-.94 2.89-1.16 4.42-1.11 1.51.05 3.07.57 4.11 1.71.82.89 1.32 2.05 1.47 3.24.09.63.06 1.28.06 1.92v11.7h-4.78c-.01-3.81.01-7.62-.01-11.42-.05-.79-.13-1.65-.65-2.29-.55-.61-1.43-.75-2.21-.78-1.03-.04-2.15.18-2.89.94-.79.81-1 1.99-1.01 3.08-.01 3.49 0 6.98 0 10.47h-4.77c0-6.02-.02-12.04.01-18.06 1.52.01 3.03 0 4.55 0 .01.85-.01 1.69.01 2.54.45-.73.98-1.44 1.69-1.94Z"/>
    <path d="M201.63 59.89c1.21-.46 2.53-.62 3.82-.59 1.72.01 3.48.43 4.87 1.48 1.24.92 2.09 2.27 2.59 3.71.62 1.79.79 3.69.8 5.57h-12.44c.06.97.28 1.95.83 2.77.51.78 1.3 1.38 2.22 1.58.97.21 2.02.13 2.9-.34.63-.31 1.12-.89 1.31-1.57h4.92c-.46 1.58-1.35 3.07-2.66 4.09-1.44 1.16-3.3 1.71-5.14 1.71-1.79.02-3.65-.25-5.23-1.13-1.29-.71-2.3-1.86-2.91-3.2-.82-1.79-1.04-3.8-1.01-5.76.02-2.06.54-4.17 1.79-5.83.83-1.13 2.02-1.99 3.34-2.49Zm.47 4.88c-.42.68-.62 1.47-.68 2.26 2.45.01 4.9-.01 7.34.01.01-1.13-.4-2.3-1.25-3.07-.78-.71-1.89-.99-2.92-.86-1.03.14-1.95.79-2.49 1.66Z" fill-rule="evenodd"/>
    <path d="M223.94 59.35c.74-.1 1.48-.1 2.23-.1v4.93c-1.02-.16-2.09-.17-3.09.12-.74.21-1.43.65-1.86 1.29-.55.79-.72 1.78-.73 2.72v9.51h-4.78c-.01-6.02 0-12.03-.01-18.05 1.49-.01 2.99-.01 4.48 0 0 .69-.01 1.39 0 2.08.35-.43.65-.91 1.09-1.27.75-.65 1.68-1.09 2.67-1.23ZM230.69 60c1.73-.69 3.63-.76 5.47-.68 1.64.1 3.39.44 4.67 1.55 1.27 1.08 1.9 2.74 1.98 4.38h-4.59c-.11-.71-.4-1.46-1.02-1.87-.73-.47-1.64-.52-2.48-.51-.7.03-1.44.08-2.07.42-.65.34-.81 1.29-.37 1.85.3.39.78.58 1.22.78 1.14.46 2.35.72 3.53 1.08 1.36.41 2.78.69 4.05 1.37.68.36 1.31.86 1.7 1.55.44.79.53 1.72.56 2.62.03.96-.19 1.93-.7 2.74-.72 1.16-1.89 2.01-3.17 2.45-1.58.55-3.27.64-4.93.58-1.7-.08-3.43-.45-4.9-1.34-1.1-.65-2.01-1.65-2.48-2.85-.26-.66-.38-1.37-.41-2.08h4.92c.01.61.2 1.24.64 1.68.71.72 1.74.99 2.72 1.02.92.03 1.86-.07 2.7-.46.41-.19.78-.54.85-1 .07-.48-.03-1.01-.35-1.39-.23-.27-.56-.42-.88-.56-.93-.39-1.94-.54-2.91-.8-1.42-.37-2.85-.78-4.16-1.46-.85-.44-1.66-1.02-2.19-1.83-.34-.5-.5-1.09-.59-1.67-.17-1.08-.12-2.23.39-3.21.55-1.15 1.65-1.91 2.8-2.36ZM151.22 59.77c1.58.01 3.17.01 4.75 0 .04 6.02.01 12.04.01 18.06h-4.77c0-6.02-.01-12.04.01-18.06ZM13.59 77.14c1.17-.39 2.55.31 2.92 1.48.43 1.14-.2 2.53-1.34 2.96-.81.33-1.8.17-2.45-.43-.58-.51-.88-1.32-.77-2.08.11-.88.78-1.67 1.64-1.93Z"/>
  </g>
  <g fill="#001B38">
    <path d="M41.43 44.83c1.38-1.2 3.46-1.5 5.13-.76 1.3.56 2.34 1.7 2.75 3.06.44 1.39.23 2.96-.58 4.17-.87 1.34-2.42 2.22-4.02 2.24-1.31.04-2.6-.5-3.55-1.39-.93-.91-1.47-2.19-1.51-3.49.08-.61.1-1.24.36-1.81.15-.52.52-.94.77-1.42.25-.16.42-.43.65-.6Zm2.55.83c-.94.2-1.76.88-2.13 1.77-.44 1.01-.26 2.25.46 3.09.82 1.03 2.35 1.39 3.55.82 1.34-.58 2.1-2.21 1.64-3.61-.42-1.46-2.04-2.43-3.52-2.07ZM15.44 59.84c1.42-.62 3.07-.67 4.53-.13 1.5.53 2.78 1.67 3.45 3.12.55 1.1.71 2.37.56 3.58-.28 1.76-1.33 3.42-2.87 4.34-.31.18-.62.42-1 .42l-.05.09c-.85.35-1.79.45-2.71.39a6.127 6.127 0 0 1-4.27-2.28 6.145 6.145 0 0 1-1.33-4.48c.14-1.45.82-2.84 1.88-3.85.53-.51 1.16-.9 1.81-1.2Zm2.01 1.44c-1.82.16-3.41 1.62-3.73 3.41-.27 1.36.18 2.84 1.17 3.8.83.84 2.04 1.3 3.22 1.23a4.2 4.2 0 0 0 2.75-1.24c.91-.9 1.38-2.24 1.21-3.52-.13-1.08-.7-2.1-1.55-2.78a4.215 4.215 0 0 0-3.07-.9Z" fill-rule="evenodd"/>
    <path d="M63.53 70.37c.55-.18 1.17-.13 1.68.14.68.34 1.17 1.05 1.22 1.81.07.75-.27 1.52-.88 1.97-.87.69-2.25.57-2.99-.26a2.243 2.243 0 0 1 .97-3.66Z"/>
    <path d="M43.58 80.74c.33-1.3 1.49-2.39 2.85-2.49.82-.11 1.66.14 2.33.61.64.5 1.12 1.23 1.28 2.03.29 1.41-.46 2.95-1.76 3.58-1.32.7-3.09.34-4.03-.83-.67-.78-.92-1.89-.67-2.9Zm2.6-.94c-.7.24-1.21.94-1.22 1.68-.03.7.4 1.38 1.02 1.69.59.31 1.35.24 1.89-.16.65-.46.93-1.35.65-2.1-.31-.92-1.43-1.46-2.34-1.11Z" fill-rule="evenodd"/>
  </g>
  <g fill="#001B38">
    <path d="M76.31 77.83c0-8.11-.01-16.22 0-24.34 5.78.01 11.56 0 17.35 0v4.23H81.42v5.53h10.7v4.3h-10.7v10.27c-1.71.01-3.41.01-5.11.01Z"/>
    <path d="M29.58 56.99c1.2-.67 2.68-.86 3.98-.38 1.66.58 2.96 1.83 4.2 3.03h.07c1.28-1.21 2.65-2.38 4.31-3.02 1.31-.52 2.84-.38 4.09.26 1.28.66 2.1 1.98 2.44 3.35.32 1.27.36 2.63.02 3.91-.5 1.88-1.64 3.53-2.91 4.98-1.34 1.5-2.87 2.82-4.49 4-1.13.82-2.29 1.62-3.52 2.29-2.39-1.28-4.67-2.79-6.68-4.62-1.7-1.56-3.25-3.38-4.09-5.56-.53-1.4-.73-2.97-.34-4.43.43-1.59 1.48-3.02 2.92-3.81Zm11.31 1.86c1.34-.36 2.88-.06 3.92.88 1.11 1.01 1.55 2.55 1.59 4.01.05 1.24-.36 2.45-.92 3.54.21-.18.35-.42.51-.64.88-1.23 1.56-2.69 1.52-4.24-.03-1.24-.37-2.55-1.26-3.46-.67-.7-1.64-1.04-2.59-1.07-1.01-.03-1.96.43-2.77.98ZM96.13 61.3c1.32-1.35 3.27-1.84 5.11-1.96 1.98-.11 4.05-.04 5.86.85 1.08.52 1.96 1.44 2.42 2.54.62 1.46.67 3.08.64 4.64.01 3.48-.01 6.97.01 10.45-1.47.03-2.95 0-4.42.01-.16-.52-.24-1.05-.29-1.59-1.15 1.24-2.82 1.88-4.48 2.02-1.44.1-2.94.04-4.29-.52-1.15-.47-2.04-1.48-2.44-2.65-.24-.7-.3-1.46-.26-2.19.03-.79.15-1.59.46-2.33a4.74 4.74 0 0 1 1.87-2.14c1.43-.88 3.13-1.08 4.74-1.36 1.13-.2 2.31-.26 3.37-.72 1.04-.42 1.19-2.02.33-2.69-.69-.55-1.61-.68-2.46-.69-.74.01-1.53.09-2.15.53-.66.51-1.01 1.33-1.13 2.14-1.48.02-2.97 0-4.46.01.06-1.56.44-3.21 1.57-4.35Zm7.4 8.5c-1.23.29-2.53.43-3.66 1.04-.58.31-1 .9-1.08 1.55-.11.7-.01 1.52.57 2 .58.47 1.37.52 2.09.47 1.48-.1 2.9-.98 3.55-2.32.58-1.09.33-2.36.42-3.54-.52.48-1.22.64-1.89.8Z" fill-rule="evenodd"/>
    <path d="M118.78 60.48c1.07-.86 2.47-1.18 3.82-1.22 1.51-.07 3.11.25 4.31 1.21 1.34 1.08 2.03 2.81 2.06 4.5v12.85h-4.78V67.37c0-.98.02-2.01-.42-2.9-.32-.66-1.06-.97-1.74-1.06-1.02-.14-2.13-.09-3.04.45-.67.39-1.11 1.08-1.33 1.8-.3.99-.23 2.03-.24 3.05v9.13c-1.6-.01-3.2.03-4.79-.02.03-6.01.01-12.02.01-18.03 1.52-.01 3.05-.01 4.57 0-.01.85 0 1.69-.01 2.54.45-.68.92-1.36 1.58-1.85Z"/>
  </g>
  <path d="M242.52 53.55c1.04 0 2.09-.02 3.13.01v.65c-.39.04-.78 0-1.17.03.01 1.05.02 2.1 0 3.15-.27.01-.54.01-.8 0-.02-1.05 0-2.1-.01-3.16-.38-.01-.77 0-1.15-.01-.01-.23-.01-.45 0-.67Zm3.64 0c.4-.01.8-.02 1.2.02.22.89.43 1.79.66 2.68.31-.88.44-1.81.71-2.7h1.15v3.82c-.25.04-.51.03-.76.02-.03-.81.04-1.63-.04-2.44-.22.8-.44 1.61-.65 2.42-.28.04-.56.04-.83 0-.22-.78-.42-1.57-.64-2.35-.11.78-.02 1.57-.05 2.36-.25.01-.51.01-.76 0 0-1.28 0-2.55.01-3.83Z" fill="#001B38"/>
</svg>
