<svg xmlns:xlink="http://www.w3.org/1999/xlink" xmlns="http://www.w3.org/2000/svg" viewBox="0 0 260 130">
  <defs>
    <clipPath id="b">
      <use xlink:href="#a"/>
    </clipPath>
    <path d="M0 0h260v130H0V0Z" id="a"/>
  </defs>
  <path d="M0 0h260v130H0V0Z" fill="none"/>
  <g clip-path="url(#b)">
    <path d="M66.77 58.25c0 1.74-.5 3.23-1.48 4.45-.99 1.24-2.19 1.85-3.59 1.85-1.39 0-2.58-.62-3.57-1.85-1-1.24-1.5-2.73-1.5-4.47V47.28h-4.41v10.95c0 2.97.92 5.5 2.77 7.61 1.86 2.1 4.1 3.14 6.72 3.14 1.84 0 3.53-.55 5.08-1.66v1.46h4.43v-21.5h-4.43v10.97h-.02Zm34.79-11.4c-2.95 0-5.39 1.29-7.3 3.86-1.9-2.58-4.33-3.86-7.28-3.86-1.83 0-3.52.55-5.06 1.66v-1.23h-4.43v21.51h4.43V57.6c0-1.74.49-3.23 1.48-4.47.99-1.24 2.18-1.85 3.57-1.85 1.41 0 2.6.62 3.59 1.85.99 1.24 1.48 2.73 1.48 4.47v11.19h4.43V57.6c0-1.74.5-3.23 1.48-4.47.99-1.24 2.19-1.85 3.59-1.85 1.39 0 2.58.62 3.57 1.85.99 1.24 1.48 2.73 1.48 4.47v11.19h4.43V57.6c0-2.97-.92-5.5-2.77-7.59-1.83-2.11-4.07-3.16-6.69-3.16Zm26.58.13c-2.32 0-4.41.68-6.29 2.05v-1.76h-4.51v33.74h4.51V66.86c1.87 1.38 3.97 2.07 6.29 2.07 2.97 0 5.51-1.07 7.63-3.22 2.11-2.13 3.16-4.72 3.16-7.75 0-3.02-1.05-5.6-3.16-7.73-2.12-2.17-4.66-3.25-7.63-3.25Zm4.41 15.54c-1.22 1.26-2.69 1.89-4.41 1.89-1.74 0-3.23-.63-4.45-1.89-1.22-1.26-1.83-2.78-1.83-4.57 0-1.77.61-3.29 1.83-4.55 1.22-1.26 2.71-1.89 4.45-1.89 1.72 0 3.19.63 4.41 1.89 1.24 1.26 1.85 2.78 1.85 4.55.01 1.79-.61 3.31-1.85 4.57Zm18.3-10.93c.69 0 1.28.2 1.76.61.49.42.74.91.74 1.48h4.51c0-1.82-.68-3.38-2.05-4.69-1.37-1.29-3.02-1.93-4.96-1.93-1.93 0-3.57.64-4.94 1.93-1.37 1.3-2.05 2.86-2.05 4.69 0 2.07.76 3.66 2.28 4.76.87.64 2.23 1.22 4.08 1.74 1.37.38 2.24.7 2.62.98.34.26.51.66.51 1.21 0 .59-.25 1.09-.74 1.5-.48.4-1.07.61-1.76.61-.68 0-1.26-.2-1.74-.61-.48-.42-.72-.92-.72-1.5h-4.53c0 1.83.68 3.4 2.05 4.69 1.37 1.3 3.01 1.95 4.94 1.95 1.94 0 3.59-.65 4.96-1.95 1.37-1.29 2.05-2.85 2.05-4.69 0-2.08-.77-3.68-2.3-4.8-.89-.64-2.25-1.22-4.1-1.74-1.35-.38-2.21-.7-2.58-.96-.33-.26-.49-.66-.49-1.19 0-.57.24-1.07.72-1.48.48-.41 1.06-.61 1.74-.61Zm22.54-4.55c-1.99 0-3.82.6-5.49 1.8V35.29h-4.43v33.5h4.43V57.8c0-1.74.53-3.23 1.6-4.47 1.08-1.24 2.38-1.85 3.89-1.85 1.52 0 2.82.62 3.88 1.85 1.08 1.24 1.62 2.73 1.62 4.47v10.99h4.43V57.8c0-2.97-.98-5.5-2.93-7.59-1.93-2.11-4.27-3.17-7-3.17Zm25.95.02c-2.98 0-5.52 1.07-7.63 3.22-2.11 2.13-3.16 4.72-3.16 7.75 0 3.03 1.05 5.62 3.16 7.75 2.11 2.15 4.65 3.22 7.63 3.22 1.95 0 3.77-.51 5.45-1.52 1.45-.85 2.62-1.96 3.51-3.34l-3.92-2.26c-1.18 1.73-2.86 2.6-5.04 2.6-1.33 0-2.53-.39-3.61-1.17-1.15-.86-1.9-2-2.26-3.42h16.67v-1.85c0-3.03-1.05-5.62-3.16-7.75-2.13-2.15-4.67-3.23-7.64-3.23Zm-5.88 8.71a6.405 6.405 0 0 1 2.26-3.01 6.014 6.014 0 0 1 3.61-1.17c1.33 0 2.53.39 3.61 1.17a6.34 6.34 0 0 1 2.26 3.01h-11.74Zm39.21-5.76c-1.94-2.11-4.28-3.16-7.01-3.16-2 0-3.83.6-5.48 1.8v-1.37h-4.43v21.51h4.43V57.6c0-1.74.53-3.23 1.6-4.47 1.08-1.24 2.38-1.85 3.88-1.85 1.51 0 2.81.62 3.89 1.85 1.08 1.24 1.62 2.73 1.62 4.47v11.19h4.41V57.6c0-2.96-.97-5.49-2.91-7.59ZM35.22 47.06c-2.98 0-5.52 1.07-7.63 3.22-2.11 2.13-3.16 4.72-3.16 7.75 0 3.03 1.05 5.62 3.16 7.75.23.23.47.45.71.66a9.149 9.149 0 0 0-2.2 5.96c0 5.09 4.14 9.24 9.24 9.24 5.1 0 9.24-4.14 9.24-9.24 0-2.33-.88-4.44-2.31-6.07.2-.18.4-.35.59-.55 2.11-2.13 3.16-4.72 3.16-7.75 0-2.36-.65-4.44-1.92-6.26h2.24v-3.94h-7.06c-1.26-.51-2.61-.77-4.06-.77Zm-4.45 6.41c1.24-1.25 2.72-1.87 4.45-1.87 1.72 0 3.19.63 4.43 1.87 1.22 1.26 1.83 2.79 1.83 4.57 0 1.78-.61 3.31-1.83 4.57-1.24 1.25-2.71 1.87-4.43 1.87-1.73 0-3.21-.63-4.45-1.87-1.21-1.26-1.82-2.78-1.82-4.57 0-1.79.61-3.31 1.82-4.57Zm9.42 18.93c0 2.68-2.18 4.86-4.86 4.86s-4.86-2.18-4.86-4.86c0-1.54.73-2.89 1.84-3.78.92.25 1.89.39 2.91.39 1.08 0 2.11-.15 3.08-.43 1.14.88 1.89 2.26 1.89 3.82Z" fill="#001B38" fill-rule="evenodd"/>
  </g>
</svg>
