<svg xmlns="http://www.w3.org/2000/svg" viewBox="0 0 260 130">
  <defs>
    <path d="M0 0h260v130H0V0Z" id="a"/>
  </defs>
  <path d="M0 0h260v130H0V0Z" fill="none"/>
  <path d="M55.62 44.16c-1.74 0-3.04-.39-3.91-1.16-.87-.81-1.3-1.93-1.3-3.36s.56-2.61 1.68-3.54c1.16-.98 2.58-1.47 4.28-1.47 1.53 0 2.77.37 3.72 1.1.95.73 1.43 1.77 1.43 3.12 0 1.63-.54 2.93-1.61 3.91-1.09.93-2.51 1.4-4.29 1.4Zm-5.95 32.81c-1.32 0-2.23-.27-2.73-.8s-.74-1.36-.74-2.5c0-.33.04-.9.12-1.71.66-7.45 1.76-14.23 3.29-20.34.33-1.26.87-2.14 1.61-2.63.79-.53 2.03-.79 3.72-.79 1.78 0 2.67.71 2.67 2.14 0 .2-.04.59-.12 1.16-1.86 8.72-2.98 16.03-3.35 21.93-.08 1.3-.47 2.22-1.18 2.75-.71.52-1.81.79-3.29.79Zm17.4 0c-1.57 0-2.69-.81-3.35-2.44-.62-1.63-.93-4.24-.93-7.82 0-5.29.76-10.32 2.29-15.09.37-1.18.97-2.04 1.8-2.56.87-.57 2.07-.86 3.6-.86.83 0 1.41.1 1.74.3.33.2.5.59.5 1.16 0 .65-.31 2.12-.93 4.4-.37 1.42-.7 2.84-.99 4.28-.25 1.22-.45 2.73-.62 4.52 1.36-3.5 2.89-6.36 4.59-8.56 1.69-2.2 3.35-3.77 4.96-4.7 1.65-.94 3.16-1.4 4.53-1.4 2.69 0 4.03 1.32 4.03 3.97 0 1.59-.45 4.46-1.36 8.61-.79 3.54-1.18 5.88-1.18 7.03 0 1.63.6 2.44 1.8 2.44.83 0 1.8-.49 2.91-1.47 1.16-1.02 2.69-2.65 4.59-4.89.5-.57 1.05-.85 1.67-.85.54 0 .95.24 1.24.73.33.49.5 1.16.5 2.02 0 1.63-.39 2.89-1.18 3.79-1.78 2.16-3.7 3.93-5.77 5.31-2.03 1.39-4.34 2.08-6.95 2.08-2.11 0-3.7-.59-4.77-1.77-1.07-1.22-1.61-2.97-1.61-5.26 0-1.14.29-3.18.87-6.11.54-2.56.81-4.34.81-5.31 0-.65-.23-.98-.68-.98-.54 0-1.3.69-2.29 2.08-.95 1.34-1.94 3.14-2.98 5.38a43.263 43.263 0 0 0-2.42 7.09c-.45 1.91-.99 3.22-1.61 3.91-.6.64-1.53.97-2.81.97Z" fill="#001B38" fill-rule="evenodd"/>
  <path d="M104.34 78.31c-2.15 0-3.8-.49-4.96-1.47-1.12-.98-1.68-2.08-1.68-3.3 0-1.06.39-1.98 1.18-2.75.79-.77 1.94-1.16 3.47-1.16.54 0 1.16.06 1.86.18l1.67.18a7.531 7.531 0 0 0-.74-2.99c-.43-.96-.97-1.86-1.61-2.69-.58-.8-1.21-1.58-1.86-2.32-1.28 2.4-2.56 4.4-3.85 5.99a41.42 41.42 0 0 1-4.09 4.52c-.74.73-1.53 1.1-2.36 1.1-.66 0-1.2-.22-1.61-.67-.41-.49-.62-1.08-.62-1.77 0-.81.29-1.57.87-2.26l.81-.98c2.27-2.77 3.99-5.05 5.15-6.84.74-1.18 1.49-2.59 2.23-4.21.79-1.63 1.8-3.85 3.04-6.66.79-1.79 2.42-2.69 4.9-2.69 1.16 0 1.96.1 2.42.31.46.2.68.53.68.98 0 .24-.08.63-.25 1.16-.16.53-.39 1.06-.68 1.59-.74 1.47-1.12 2.71-1.12 3.73 0 .61.21 1.28.62 2.02.46.73 1.14 1.65 2.05 2.75 1.32 1.71 2.31 3.18 2.98 4.4.7 1.18 1.05 2.48 1.05 3.91 0 1.71-.41 3.34-1.24 4.89a9.54 9.54 0 0 1-3.35 3.67c-1.45.91-3.1 1.38-4.96 1.38Zm40.19-20.28c0 3.22-.76 6.27-2.29 9.16-1.49 2.85-3.49 5.17-6.01 6.96-2.48 1.79-5.15 2.73-8 2.81-.54 7.86-1.76 14.42-3.66 19.67-1.9 5.29-4.69 7.94-8.37 7.94-2.23 0-3.88-.79-4.96-2.38-1.08-1.59-1.61-3.79-1.61-6.6 0-3.99.93-8.65 2.79-13.99 1.86-5.3 4.73-11.14 8.62-17.53 0-5.95-.04-10.08-.12-12.4-.04-1.18.43-2.12 1.43-2.81.99-.69 2.23-1.04 3.72-1.04.87 0 1.49.18 1.86.55.41.33.64 1 .68 2.02 0 1.02.02 1.77.06 2.26 1.32-1.63 2.62-2.79 3.91-3.48 1.24-.72 2.65-1.1 4.09-1.1 2.31 0 4.2.92 5.64 2.75 1.48 1.83 2.22 4.23 2.22 7.21Zm-16 13.07c1.49-.33 2.85-1.12 4.09-2.38 1.28-1.3 2.29-2.89 3.04-4.77.74-1.91 1.12-3.91 1.12-5.99 0-1.22-.25-2.14-.74-2.75-.5-.65-1.16-.98-1.98-.98-1.49 0-3.29 1.55-5.39 4.64-.04 1.79-.06 4.42-.06 7.88-.01 1.89-.04 3.33-.08 4.35Zm-11.84 27.49c1.12 0 2.05-2.4 2.79-7.21.74-4.77 1.22-10.71 1.43-17.84-1.78 4.07-3.18 7.96-4.22 11.67-1.03 3.71-1.55 6.82-1.55 9.35 0 1.3.16 2.3.49 2.99.3.7.65 1.04 1.06 1.04Zm40.09-54.43c-1.74 0-3.04-.39-3.91-1.16-.87-.81-1.3-1.93-1.3-3.36s.56-2.61 1.68-3.54c1.16-.98 2.58-1.47 4.28-1.47 1.53 0 2.77.37 3.72 1.1.95.73 1.43 1.77 1.43 3.12 0 1.63-.54 2.93-1.61 3.91-1.09.93-2.51 1.4-4.29 1.4Zm-5.95 32.81c-1.32 0-2.23-.27-2.73-.8s-.74-1.36-.74-2.5c0-.33.04-.9.12-1.71.66-7.45 1.76-14.23 3.29-20.34.33-1.26.87-2.14 1.61-2.63.78-.53 2.02-.79 3.72-.79 1.78 0 2.67.71 2.67 2.14 0 .2-.04.59-.12 1.16-1.86 8.72-2.98 16.03-3.35 21.93-.08 1.3-.48 2.22-1.18 2.75-.71.52-1.81.79-3.29.79Zm14.92 0c-1.57 0-2.69-.81-3.35-2.44-.62-1.63-.93-4.24-.93-7.82 0-5.29.76-10.32 2.29-15.09.37-1.18.97-2.04 1.8-2.56.87-.57 2.07-.86 3.6-.86.83 0 1.4.1 1.74.3.33.2.5.59.5 1.16 0 .65-.31 2.12-.93 4.4-.37 1.42-.7 2.84-.99 4.28-.25 1.22-.45 2.73-.62 4.52 1.36-3.5 2.89-6.36 4.59-8.56 1.69-2.2 3.35-3.77 4.96-4.7 1.65-.94 3.16-1.4 4.53-1.4 2.69 0 4.03 1.32 4.03 3.97 0 .53-.19 1.81-.56 3.85-.33 1.63-.5 2.65-.5 3.05 0 1.43.52 2.14 1.55 2.14 1.16 0 2.65-.9 4.47-2.69.54-.53 1.1-.79 1.67-.79.54 0 .95.24 1.24.73.33.45.5 1.06.5 1.83 0 1.51-.41 2.69-1.24 3.54-1.16 1.18-2.52 2.2-4.09 3.06-1.51.81-3.19 1.23-4.9 1.22-2.19 0-3.86-.55-5.02-1.65-1.11-1.1-1.67-2.59-1.67-4.46 0-.61.06-1.22.19-1.83.08-.81.12-1.36.12-1.65 0-.65-.23-.98-.68-.98-.62 0-1.45.69-2.48 2.08-.99 1.34-1.98 3.14-2.98 5.38a43.263 43.263 0 0 0-2.42 7.09c-.45 1.91-.99 3.22-1.61 3.91-.6.64-1.53.97-2.81.97Z" fill="#001B38" fill-rule="evenodd"/>
  <path d="M196.01 76.97c-1.94 0-3.51-.77-4.71-2.32-1.16-1.59-1.74-3.77-1.74-6.54 0-3.06.21-5.85.62-8.37.41-2.57 1.1-5.27 2.05-8.13.41-1.22.99-2.1 1.74-2.63.74-.53 1.92-.79 3.54-.79.91 0 1.53.14 1.86.43.37.29.56.71.56 1.28 0 .33-.23 1.42-.68 3.3-.38 1.35-.71 2.72-.99 4.09-.83 4.28-1.24 7.13-1.24 8.55 0 .85.1 1.47.31 1.83.21.33.54.49.99.49.62 0 1.4-.61 2.36-1.83.95-1.26 1.94-3.14 2.98-5.62 1.08-2.53 2.09-5.56 3.04-9.1.33-1.22.83-2.1 1.49-2.63.7-.53 1.74-.79 3.1-.79.91 0 1.55.24 1.92.73.41.45.62 1.14.62 2.08 0 1.02-.08 2.16-.25 3.42-.16 1.22-.35 2.48-.56 3.79-.38 2.38-.71 4.76-.99 7.15-.25 2.12-.37 4.54-.37 7.27 0 1.55-.33 2.67-.99 3.36-.62.65-1.65.98-3.1.98-1.53 0-2.6-.39-3.22-1.16-.58-.81-.87-2.36-.87-4.64 0-.45.04-1.45.12-2.99-.7 2.85-1.76 5.03-3.16 6.54-1.39 1.49-2.86 2.25-4.43 2.25Z" fill="#001B38"/>
</svg>
