<svg xmlns="http://www.w3.org/2000/svg" viewBox="0 0 260 130">
  <defs>
    <path d="M0 0h260v130H0V0Z" id="a"/>
  </defs>
  <path d="M0 0h260v130H0V0Z" fill="none"/>
  <path d="M29.79 77.4 23.4 55.45s-1.66-5.02 5.74-7.06S70.17 37.4 70.17 37.4l-4.85-7.57s-1.62-3.32-6.47-.6c-4.85 2.72-39.4 22.98-39.4 22.98s-3.91 1.62-1.11 6.89 11.45 18.3 11.45 18.3Z" fill="#001B38"/>
  <path d="m31.96 76.98-6.13-21.62s-1.28-4 3.06-5.02c4.34-1.02 42.47-11.32 42.47-11.32s5.02-.51 6.04 2.98c1.02 3.49 2.04 7.57 2.04 7.57h-5.53s-7.32-8-20-4.43C48.04 46.77 45.4 50 45.4 50l-10.04-.17s-3.15.26-3.15 3.91v3.66h6.98l-1.53 5.19H32.3l-.34 14.39Z" fill="#001B38"/>
  <path d="m80.13 57.23 1.95 6.05h5.88v-6.05h-7.83Z" fill="#001B38" fill-rule="evenodd"/>
  <path d="M52.55 55.19S47.79 61.1 47.62 65h27.57s-1.19-7.6-5.02-9.81H52.55Z" fill="#001B38"/>
  <path d="M59.57 86.55c-11.36 0-20.6-9.24-20.6-20.6 0-11.36 9.24-20.6 20.6-20.6 11.36 0 20.6 9.24 20.6 20.6 0 11.36-9.24 20.6-20.6 20.6Zm0-37.19c-9.15 0-16.6 7.44-16.6 16.6s7.44 16.6 16.6 16.6c9.15 0 16.6-7.44 16.6-16.6s-7.44-16.6-16.6-16.6Z" fill="#001B38" fill-rule="evenodd"/>
  <path d="m44.17 78.94-6.38 6.6-12.14 10.33s-1.4 1.83.56 3.96 3.83.51 3.83.51l11.23-12.85 5.79-5.57-2.89-2.98ZM45.43 55.19h4.91S45.62 60 45.43 65h-5.11l5.11-9.81ZM95.24 36.78h3.43V48.8h7.43v2.79H95.24V36.78Zm15.96 14.08a7.363 7.363 0 0 1-2.9-2.74c-.7-1.16-1.05-2.47-1.05-3.93 0-1.45.35-2.76 1.05-3.93a7.43 7.43 0 0 1 2.9-2.74c1.23-.66 2.62-1 4.16-1s2.92.33 4.15 1c1.23.66 2.19 1.58 2.9 2.74.71 1.17 1.06 2.47 1.06 3.93 0 1.45-.35 2.76-1.06 3.93a7.426 7.426 0 0 1-2.9 2.74c-1.23.66-2.61 1-4.15 1-1.54-.01-2.93-.34-4.16-1Zm6.53-2.53c.71-.4 1.26-.96 1.66-1.68.4-.72.6-1.54.6-2.46 0-.92-.2-1.74-.6-2.46-.4-.72-.96-1.28-1.66-1.68-.71-.4-1.5-.6-2.37-.6-.88 0-1.67.2-2.37.6-.71.4-1.26.96-1.66 1.68-.4.72-.6 1.54-.6 2.46 0 .92.2 1.74.6 2.46.4.72.96 1.28 1.66 1.68.71.4 1.5.6 2.37.6.87 0 1.66-.2 2.37-.6Zm11.74 2.53a7.363 7.363 0 0 1-2.9-2.74c-.7-1.16-1.05-2.47-1.05-3.93 0-1.45.35-2.76 1.05-3.93a7.43 7.43 0 0 1 2.9-2.74c1.24-.66 2.62-1 4.16-1s2.92.33 4.15 1a7.43 7.43 0 0 1 2.9 2.74c.71 1.17 1.06 2.47 1.06 3.93 0 1.45-.35 2.76-1.06 3.93a7.426 7.426 0 0 1-2.9 2.74c-1.23.66-2.61 1-4.15 1-1.54-.01-2.92-.34-4.16-1Zm6.53-2.53c.71-.4 1.26-.96 1.66-1.68.4-.72.6-1.54.6-2.46 0-.92-.2-1.74-.6-2.46-.4-.72-.96-1.28-1.66-1.68-.71-.4-1.5-.6-2.37-.6-.88 0-1.67.2-2.37.6-.71.4-1.26.96-1.66 1.68-.4.72-.6 1.54-.6 2.46 0 .92.2 1.74.6 2.46.4.72.96 1.28 1.66 1.68.7.4 1.5.6 2.37.6.88 0 1.67-.2 2.37-.6Zm14.13-2.55-1.99 2.08v3.75h-3.41V36.78h3.41v6.92l6.56-6.92h3.81l-6.14 6.61 6.5 8.22h-4l-4.74-5.83Zm37.7-9-4.85 14.82h-3.68l-3.26-10.04-3.37 10.04h-3.66l-4.87-14.82h3.56l3.34 10.42 3.49-10.42h3.18l3.39 10.5 3.45-10.5h3.28Zm15.24 0V51.6h-3.43v-6.08h-6.73v6.08h-3.43V36.78h3.43v5.84h6.73v-5.84h3.43Zm5.98 14.08a7.363 7.363 0 0 1-2.9-2.74c-.7-1.16-1.05-2.47-1.05-3.93 0-1.45.35-2.76 1.05-3.93a7.43 7.43 0 0 1 2.9-2.74c1.24-.66 2.62-1 4.16-1s2.92.33 4.15 1a7.43 7.43 0 0 1 2.9 2.74c.71 1.17 1.06 2.47 1.06 3.93 0 1.45-.35 2.76-1.06 3.93a7.426 7.426 0 0 1-2.9 2.74c-1.23.66-2.61 1-4.15 1-1.53-.01-2.92-.34-4.16-1Zm6.54-2.53c.71-.4 1.26-.96 1.66-1.68.4-.72.6-1.54.6-2.46 0-.92-.2-1.74-.6-2.46-.4-.72-.96-1.28-1.66-1.68-.71-.4-1.5-.6-2.37-.6-.88 0-1.67.2-2.37.6-.71.4-1.26.96-1.66 1.68-.4.72-.6 1.54-.6 2.46 0 .92.2 1.74.6 2.46.4.72.96 1.28 1.66 1.68.7.4 1.5.6 2.37.6.87 0 1.66-.2 2.37-.6Zm16.87 3.05c-1.09-.32-1.97-.73-2.64-1.24l1.17-2.58c.63.47 1.39.84 2.27 1.12.88.28 1.75.42 2.62.42.97 0 1.69-.15 2.16-.43.47-.28.7-.67.7-1.15 0-.35-.14-.65-.41-.88-.27-.23-.63-.42-1.06-.56-.43-.14-1.01-.3-1.75-.47-1.13-.27-2.05-.54-2.77-.8-.72-.27-1.34-.7-1.85-1.29-.52-.59-.77-1.38-.77-2.37 0-.86.23-1.64.7-2.34s1.17-1.25 2.11-1.66c.94-.41 2.08-.61 3.44-.61.95 0 1.87.11 2.77.34.9.23 1.69.55 2.37.97l-1.06 2.6c-1.37-.78-2.74-1.17-4.11-1.17-.96 0-1.67.16-2.13.47-.46.31-.69.72-.69 1.23s.26.89.79 1.13c.53.25 1.34.49 2.42.73 1.13.27 2.05.54 2.77.8.72.27 1.34.69 1.85 1.27.51.58.77 1.36.77 2.35 0 .85-.24 1.62-.71 2.32-.47.7-1.18 1.25-2.13 1.66-.95.41-2.1.61-3.45.61-1.15 0-2.29-.16-3.38-.47ZM99.73 76.77a8.443 8.443 0 0 1-3.29-3.12c-.8-1.33-1.2-2.83-1.2-4.51 0-1.67.4-3.18 1.2-4.5.8-1.33 1.89-2.37 3.29-3.12 1.39-.75 2.96-1.12 4.7-1.12 1.47 0 2.79.26 3.97.77 1.18.52 2.18 1.26 2.98 2.22l-2.51 2.32c-1.14-1.32-2.56-1.98-4.25-1.98-1.05 0-1.98.23-2.8.69-.82.46-1.46 1.1-1.92 1.92-.46.82-.69 1.76-.69 2.8 0 1.05.23 1.98.69 2.8.46.82 1.1 1.46 1.92 1.92.82.46 1.76.69 2.8.69 1.69 0 3.11-.67 4.25-2.01l2.51 2.32c-.81.98-1.8 1.73-3 2.25-1.19.52-2.52.77-3.99.77-1.71.01-3.27-.37-4.66-1.11Zm31.61-16.08V77.6h-3.91v-6.93h-7.68v6.93h-3.91V60.69h3.91v6.67h7.68v-6.67h3.91Zm16.96 13.29h-7.85l-1.5 3.62h-4.01l7.54-16.91h3.87l7.56 16.91h-4.11l-1.5-3.62ZM147.07 71l-2.68-6.47L141.7 71h5.37Zm21.18 6.6-3.26-4.71h-3.6v4.71h-3.91V60.69h7.32c1.5 0 2.8.25 3.9.75s1.95 1.21 2.55 2.13c.6.92.89 2 .89 3.26 0 1.26-.3 2.34-.91 3.25-.6.91-1.46 1.61-2.57 2.09l3.79 5.44h-4.2v-.01Zm-.99-12.96c-.61-.51-1.51-.76-2.68-.76h-3.19v5.89h3.19c1.18 0 2.07-.26 2.68-.77.61-.51.92-1.24.92-2.17 0-.96-.3-1.68-.92-2.19Zm21.22 4.24h3.58v6.86c-.92.69-1.98 1.22-3.19 1.59-1.21.37-2.42.56-3.65.56-1.76 0-3.33-.37-4.74-1.12-1.4-.75-2.5-1.79-3.3-3.12-.8-1.33-1.2-2.83-1.2-4.51 0-1.67.4-3.18 1.2-4.5.8-1.33 1.9-2.37 3.32-3.12s3.01-1.12 4.78-1.12c1.48 0 2.83.25 4.03.75 1.21.5 2.22 1.22 3.04 2.17l-2.51 2.32c-1.21-1.27-2.67-1.91-4.37-1.91-1.08 0-2.04.23-2.88.68a4.87 4.87 0 0 0-1.96 1.91c-.47.82-.7 1.76-.7 2.83 0 1.05.23 1.98.7 2.8.47.82 1.12 1.46 1.95 1.92.83.46 1.78.69 2.84.69 1.13 0 2.14-.24 3.04-.72v-4.96h.02Zm9.01-8.19h3.91V77.6h-3.91V60.69Zm25.24 0V77.6h-3.21l-8.43-10.27V77.6h-3.87V60.69h3.24l8.41 10.27V60.69h3.86Zm17.25 8.19h3.58v6.86c-.92.69-1.98 1.22-3.19 1.59-1.21.37-2.42.56-3.65.56-1.76 0-3.33-.37-4.74-1.12-1.4-.75-2.5-1.79-3.3-3.12-.8-1.33-1.2-2.83-1.2-4.51 0-1.67.4-3.18 1.2-4.5.8-1.33 1.9-2.37 3.32-3.12s3.01-1.12 4.78-1.12c1.48 0 2.83.25 4.03.75 1.21.5 2.22 1.22 3.04 2.17l-2.51 2.32c-1.21-1.27-2.67-1.91-4.37-1.91-1.08 0-2.04.23-2.88.68a4.87 4.87 0 0 0-1.96 1.91c-.47.82-.7 1.76-.7 2.83 0 1.05.23 1.98.7 2.8.47.82 1.12 1.46 1.95 1.92.83.46 1.78.69 2.84.69 1.13 0 2.14-.24 3.04-.72v-4.96h.02Z" fill="#001B38"/>
  <path d="M184.18 68.86h6.27v3.15h-6.27v-3.15ZM235.68 68.86h6.27v3.15h-6.27v-3.15ZM223.38 36.23v7.82h2.14l1.98-7.82h-4.12Z" fill="#001B38" fill-rule="evenodd"/>
</svg>
