<svg xmlns="http://www.w3.org/2000/svg" viewBox="0 0 260 130">
  <defs>
    <path d="M0 0h260v130H0V0Z" id="a"/>
  </defs>
  <path d="M0 0h260v130H0V0Z" fill="none"/>
  <path d="M31.89 61.12c3.14-.06 6.28.02 9.41-.05.02 3.14.04 6.27-.01 9.41-3.15-.03-6.29-.03-9.43 0l.01-.14c.03-3.07-.03-6.15.02-9.22Z" fill="#001B38"/>
  <path d="M12.21 39.27h28.86v9.29H12.21v-9.29ZM20.71 50.12h9.39v9.39h-9.39v-9.39ZM31.85 50.14h19.3v9.36h-19.3v-9.36ZM20.71 61.08h9.39v9.39h-9.39v-9.39ZM31.86 72.03h9.45v9.29h-9.45v-9.29ZM43.04 61.09h9.3v27.9h-9.3v-27.9Z" fill="#001B38" fill-rule="evenodd"/>
  <path d="M50.73 61.08h11.21v9.1H50.73v-9.1Z" fill="#001B38" fill-rule="evenodd"/>
  <path d="M73.91 59.28h-6.68v-3.93h18.18v3.93h-6.68v16.93H73.9V59.28h.01Zm17.43 15.88c-1.74-.93-3.1-2.22-4.08-3.86-.98-1.64-1.48-3.48-1.48-5.53 0-2.05.49-3.89 1.48-5.53.98-1.64 2.34-2.93 4.08-3.86 1.74-.93 3.69-1.4 5.86-1.4 2.17 0 4.11.47 5.84 1.4 1.73.93 3.09 2.22 4.08 3.86.99 1.64 1.49 3.48 1.49 5.53 0 2.05-.5 3.89-1.49 5.53-.99 1.64-2.35 2.93-4.08 3.86-1.73.93-3.68 1.4-5.84 1.4-2.17.01-4.12-.46-5.86-1.4Zm9.19-3.56c.99-.57 1.77-1.36 2.34-2.37.57-1.01.85-2.17.85-3.46s-.28-2.44-.85-3.46a6.195 6.195 0 0 0-2.34-2.37c-.99-.57-2.11-.85-3.34-.85s-2.35.28-3.34.85c-.99.57-1.77 1.36-2.34 2.37-.57 1.01-.85 2.17-.85 3.46s.28 2.44.85 3.46c.57 1.01 1.35 1.8 2.34 2.37.99.57 2.11.85 3.34.85 1.24 0 2.35-.28 3.34-.85Zm24.94-15.33c1.36.62 2.41 1.49 3.14 2.62.74 1.13 1.1 2.47 1.1 4.02 0 1.53-.37 2.87-1.1 4.01-.74 1.14-1.78 2.02-3.14 2.62-1.36.61-2.97.91-4.81.91h-4.2v5.75h-4.83V55.34h9.03c1.84 0 3.45.31 4.81.93Zm-1.78 9.31c.76-.63 1.13-1.52 1.13-2.67 0-1.17-.38-2.07-1.13-2.7-.76-.63-1.86-.94-3.31-.94h-3.93v7.24h3.93c1.46.01 2.56-.3 3.31-.93Zm21.26-6.3h-6.68v-3.93h18.18v3.93h-6.68v16.93h-4.83V59.28h.01Zm17.42 15.88c-1.74-.93-3.1-2.22-4.08-3.86-.98-1.64-1.48-3.48-1.48-5.53 0-2.05.49-3.89 1.48-5.53.98-1.64 2.34-2.93 4.08-3.86 1.74-.93 3.69-1.4 5.86-1.4 2.17 0 4.11.47 5.84 1.4 1.73.93 3.09 2.22 4.08 3.86.99 1.64 1.49 3.48 1.49 5.53 0 2.05-.5 3.89-1.49 5.53-.99 1.64-2.35 2.93-4.08 3.86-1.73.93-3.68 1.4-5.84 1.4-2.17.01-4.12-.46-5.86-1.4Zm9.2-3.56c.99-.57 1.77-1.36 2.34-2.37.57-1.01.85-2.17.85-3.46s-.28-2.44-.85-3.46a6.195 6.195 0 0 0-2.34-2.37c-.99-.57-2.11-.85-3.34-.85s-2.35.28-3.34.85c-.99.57-1.77 1.36-2.34 2.37-.57 1.01-.85 2.17-.85 3.46s.28 2.44.85 3.46c.57 1.01 1.35 1.8 2.34 2.37.99.57 2.11.85 3.34.85s2.34-.28 3.34-.85Zm23.22-12.32h-6.68v-3.93h18.18v3.93h-6.68v16.93h-4.83V59.28h.01Zm17.42 15.88c-1.74-.93-3.1-2.22-4.08-3.86-.98-1.64-1.47-3.48-1.47-5.53 0-2.05.49-3.89 1.47-5.53.98-1.64 2.34-2.93 4.08-3.86 1.74-.93 3.69-1.4 5.86-1.4 2.17 0 4.11.47 5.84 1.4 1.73.93 3.09 2.22 4.08 3.86.99 1.64 1.49 3.48 1.49 5.53 0 2.05-.5 3.89-1.49 5.53-.99 1.64-2.35 2.93-4.08 3.86-1.73.93-3.68 1.4-5.84 1.4-2.17.01-4.12-.46-5.86-1.4Zm9.19-3.56c.99-.57 1.77-1.36 2.34-2.37.57-1.01.85-2.17.85-3.46s-.28-2.44-.85-3.46a6.195 6.195 0 0 0-2.34-2.37c-.99-.57-2.11-.85-3.34-.85s-2.34.28-3.34.85c-.99.57-1.77 1.36-2.34 2.37-.57 1.01-.85 2.17-.85 3.46s.28 2.44.85 3.46c.57 1.01 1.35 1.8 2.34 2.37.99.57 2.11.85 3.34.85 1.24 0 2.35-.28 3.34-.85Zm27.25.73v3.88h-16.16V55.34h15.77v3.87h-10.97v4.53h9.69v3.75h-9.69v4.83h11.36v.01Z" fill="#001B38"/>
</svg>
