<svg fill="none" xmlns="http://www.w3.org/2000/svg" viewBox="0 0 280 280">
  <path fill="#313131" d="M0 0h280v280H0z"/>
  <path d="M90.671 105.745c0 3.431.971 6.117 2.914 8.06 1.943 1.943 4.547 2.914 7.812 2.914 3.265 0 5.828-.971 7.688-2.914 1.901-1.943 2.852-4.629 2.852-8.06V80.201h8.308v25.544c0 3.761-.765 7.047-2.294 9.858-1.529 2.769-3.72 4.898-6.572 6.386-2.811 1.488-6.138 2.232-9.982 2.232-3.885 0-7.275-.744-10.168-2.232-2.852-1.488-5.043-3.617-6.572-6.386-1.53-2.811-2.294-6.097-2.294-9.858V80.201h8.308v25.544ZM115.347 168.303a16.254 16.254 0 0 0-5.456-4.154c-2.067-.992-4.175-1.488-6.324-1.488-2.687 0-5.146.641-7.378 1.922s-3.989 3.059-5.27 5.332c-1.281 2.232-1.922 4.691-1.922 7.378 0 2.687.64 5.167 1.922 7.44a14.492 14.492 0 0 0 5.27 5.332c2.232 1.281 4.691 1.922 7.378 1.922 2.067 0 4.133-.455 6.2-1.364a17.77 17.77 0 0 0 5.58-3.782l4.898 5.456c-2.273 2.315-4.919 4.154-7.936 5.518-3.017 1.323-6.076 1.984-9.176 1.984-4.175 0-7.998-.992-11.47-2.976-3.472-1.984-6.2-4.671-8.184-8.06-1.984-3.431-2.976-7.213-2.976-11.346s1.013-7.895 3.038-11.284c2.025-3.389 4.774-6.055 8.246-7.998 3.513-1.943 7.399-2.914 11.656-2.914 3.1 0 6.138.62 9.114 1.86 2.976 1.24 5.518 2.955 7.626 5.146l-4.836 6.076ZM156.469 80.011h9.734l9.982 14.26 9.982-14.26h9.858l-14.57 20.77 15.81 22.63h-9.982l-11.098-15.5-10.974 15.5h-9.734l15.624-22.258-14.632-21.142ZM176.371 155.411c4.299 0 8.205.971 11.718 2.914 3.555 1.943 6.345 4.609 8.37 7.998 2.025 3.389 3.038 7.151 3.038 11.284 0 4.133-1.013 7.915-3.038 11.346-2.025 3.389-4.815 6.076-8.37 8.06-3.513 1.984-7.419 2.976-11.718 2.976s-8.225-.992-11.78-2.976c-3.513-1.984-6.283-4.671-8.308-8.06-2.025-3.431-3.038-7.213-3.038-11.346s1.013-7.895 3.038-11.284c2.025-3.389 4.795-6.055 8.308-7.998 3.555-1.943 7.481-2.914 11.78-2.914Zm.124 7.44c-2.645 0-5.105.661-7.378 1.984-2.273 1.281-4.071 3.059-5.394 5.332-1.323 2.232-1.984 4.712-1.984 7.44 0 2.728.661 5.229 1.984 7.502 1.364 2.273 3.162 4.071 5.394 5.394a14.416 14.416 0 0 0 7.378 1.984c2.604 0 5.022-.661 7.254-1.984a14.355 14.355 0 0 0 5.27-5.394c1.323-2.273 1.984-4.774 1.984-7.502 0-2.728-.661-5.208-1.984-7.44-1.281-2.273-3.038-4.051-5.27-5.332a13.976 13.976 0 0 0-7.254-1.984Z" fill="#fff"/>
</svg>
